<svg width="196" height="266" viewBox="0 0 196 266" fill="none" xmlns="http://www.w3.org/2000/svg">
<path d="M26.81 235L17.29 212.88H16.94V235H3.15V186.84H17.57L25.62 205.53H26.11V186.84H39.9V235H26.81ZM56.7864 235V186.84H86.7464V197.83H71.1364V205.25H84.1564V216.1H71.1364V224.01H86.7464V235H56.7864ZM126.553 235L121.513 221.14H120.813L115.703 235H100.443L111.853 210.78L100.653 186.84H116.473L121.303 200.28H121.933L126.973 186.84H142.233L130.963 210.5L142.373 235H126.553ZM181.526 235L180.056 227.3H168.716L167.316 235H153.176L164.306 186.84H184.816L195.876 235H181.526ZM174.596 198.95H174.036L170.816 216.66H177.956L174.596 198.95Z" fill="currentColor"/>
<path d="M105.3 113L91.7 81.4H91.2V113H71.5V44.2H92.1L103.6 70.9H104.3V44.2H124V113H105.3Z" fill="#1f618d"/>
<path d="M33.45 40.7321L98 3.4641L162.55 40.7321V115.268L98 152.536L33.45 115.268V40.7321Z" stroke="#1f618d" stroke-width="6" stroke-linejoin="round"/>
</svg>
